<svg
width="304.9199597914881"
height="304.9200042724609"
viewBox="0 0 234.375 234.3750341900478"
class="css-1j8o68f">
  <defs id="SvgjsDefs3406"></defs>
  <g id="SvgjsG3407" featurekey="rootContainer" transform="matrix(2.2406790256500244,0,0,2.2406790256500244,0.000008547511949193771,0.000008547511949193771)" fill="#ffffff">
  <path xmlns="http://www.w3.org/2000/svg" d="M52.3 104.6a52.3 52.3 0 1 1 52.3-52.3 52.4 52.4 0 0 1-52.3 52.3zm0-102.3a50 50 0 1 0 50 50 50 50 0 0 0-50-50z"></path>
  </g>
  <g id="SvgjsG3408" featurekey="symbolFeature-0" transform="matrix(0.6666666865348816,0,0,0.6666666865348816,83.66666666666666,29.240666707356773)" fill="#ffffff">
  <ellipse xmlns="http://www.w3.org/2000/svg" cx="55.125" cy="64.81" rx="5.077" ry="8.551"></ellipse>
  <path xmlns="http://www.w3.org/2000/svg" d="M16.012,73.361c1.628,0,3.073-1.295,4.002-3.303c-3.488-0.188-6.226-0.507-8.373-0.916  C12.524,71.664,14.149,73.361,16.012,73.361z"></path>
  <ellipse xmlns="http://www.w3.org/2000/svg" cx="87.643" cy="56.542" rx="4.834" ry="8.144"></ellipse>
  <path xmlns="http://www.w3.org/2000/svg"
  d="M90.496,36.743c-6.188-3.194-8.081-10.104-29.824-10.104c-11.993,0-16.456,1.356-18.6,1.998  C32.275,31.566,22.6,39.76,22.184,40.181c-1.933,1.96-14.119,5.932-16.697,12.232c2.154,0.646,4.346,1.752,5.916,3.64  c0.96,1.154,0.75,2.508-0.203,2.385L5,57.636v6.456c0,8.02,42.711,4.352,42.711,4.352l1.244-0.334  c-0.229-1.029-0.357-2.135-0.357-3.299c0-5.607,2.867-10.002,6.527-10.002c3.637,0,6.486,4.336,6.523,9.891l19.971-5.366  c-0.169-0.88-0.264-1.813-0.264-2.79c0-5.38,2.762-9.594,6.287-9.594c3.282,0,5.899,3.658,6.244,8.505  C94.622,54.445,95,52.602,95,49.667v-3.142C95,42.93,94.102,38.602,90.496,36.743z M46.476,54.991L46.476,54.991  c-0.001,0.963-0.776,1.844-1.731,1.967l-11.442,1.479c-0.953,0.121-1.163-1.23-0.203-2.386c3.146-3.782,8.787-4.433,11.631-4.506  c0.964-0.024,1.745,0.808,1.745,1.771V54.991z M53.997,42.656H24.695c0,0,9.361-11.524,21.729-11.524h17.484  C58.529,34.517,53.997,42.656,53.997,42.656z M59.458,44.99l2.595-1.887c0.219,0.04,0.447,0.042,0.684-0.006l2.906-0.598  c1.178-0.242,2.021-1.166,2.021-2.34c0-1.94-1.37-2.61-5.299-1.317c-1.143,0.376-2.018,1.501-1.943,2.501  c0.01,0.14,0.041,0.278,0.087,0.414l-2.124,1.108c1.385-3.25,4.588-8.606,11.327-11.249c0.095-0.037,0.188-0.064,0.282-0.098  c1.927,3.113,2.736,7.473,3.035,9.616L59.458,44.99z M75.38,40.466c-0.331-2.262-1.132-6.256-2.922-9.514  c7.396-0.777,13.935,6.385,13.935,6.385L75.38,40.466z">
  </path>
  </g>
  <g id="SvgjsG3409" featurekey="nameFeature-0" transform="matrix(3.1999318599700928,0,0,3.1999318599700928,38.160081720669695,59.6008187325433)" fill="#ffffff">
  <path d="M1.2 40 l0 -4.48 l0.84 -0.56 l0 -17.92 l-0.84 -0.56 l0 -4.48 l6.72 0 l0 4.48 l-0.84 0.56 l0 17.92 l0.84 0.56 l0 4.48 l-6.72 0 z M10.898 40 l0 -4.48 l0.84 -0.56 l0 -17.92 l-0.84 -0.56 l0 -4.48 l6.72 0 l0 4.48 l-0.84 0.56 l0 7.84 l5.32 -6.76 l0 -1.08 l-0.84 -0.56 l0 -4.48 l6.72 0 l0 4.48 l-0.84 0.56 l0 2.84 l-3.64 4.64 l3.64 4.52 l0 5.92 l0.84 0.56 l0 4.48 l-6.72 0 l0 -4.48 l0.84 -0.56 l0 -4.16 l-1.8 -2.2 l-3.52 4.44 l0 1.92 l0.84 0.56 l0 4.48 l-6.72 0 z M30.156 40 l0 -4.48 l0.84 -0.56 l3.64 -17.92 l-0.84 -0.56 l0 -4.48 l10.64 0 l0 4.48 l-0.84 0.56 l3.64 17.92 l0.84 0.56 l0 4.48 l-4.96 0 l-1.24 -6.16 l-5.52 0 l-1.24 6.16 l-4.96 0 z M37.396 28.8 l3.44 0 l-1.72 -8.56 z">
  </path>
  </g>
</svg>
